<?xml version="1.0" encoding="UTF-8"?>
<svg xmlns="http://www.w3.org/2000/svg" width="1024" height="1024" viewBox="0 0 2048 2048" shape-rendering="geometricPrecision">
  <defs>
    <clipPath id="outerClip">
      <path d="M 83.00 80.00 L 61.00 108.00 L 44.00 149.00 L 33.00 198.00 L 29.00 237.00 L 28.00 284.00 L 32.00 359.00 L 42.00 426.00 L 62.00 517.00 L 96.00 626.00 L 120.00 689.00 L 173.00 801.00 L 219.00 882.00 L 254.00 936.00 L 283.00 975.00 L 324.00 1023.00 L 270.00 1094.00 L 233.00 1149.00 L 201.00 1202.00 L 148.00 1302.00 L 101.00 1412.00 L 78.00 1480.00 L 61.00 1540.00 L 52.00 1589.00 L 43.00 1622.00 L 36.00 1668.00 L 30.00 1734.00 L 29.00 1792.00 L 32.00 1839.00 L 42.00 1892.00 L 60.00 1936.00 L 76.00 1958.00 L 94.00 1974.00 L 111.00 1985.00 L 139.00 1997.00 L 170.00 2006.00 L 180.00 2006.00 L 182.00 2009.00 L 233.00 2016.00 L 298.00 2016.00 L 349.00 2013.00 L 427.00 2002.00 L 510.00 1984.00 L 626.00 1949.00 L 699.00 1920.00 L 784.00 1880.00 L 857.00 1839.00 L 921.00 1798.00 L 978.00 1757.00 L 1021.00 1720.00 L 1061.00 1753.00 L 1131.00 1802.00 L 1181.00 1834.00 L 1259.00 1878.00 L 1273.00 1883.00 L 1335.00 1915.00 L 1421.00 1950.00 L 1560.00 1991.00 L 1606.00 1998.00 L 1616.00 2002.00 L 1618.00 2000.00 L 1621.00 2003.00 L 1644.00 2005.00 L 1649.00 2008.00 L 1653.00 2006.00 L 1657.00 2009.00 L 1689.00 2011.00 L 1706.00 2015.00 L 1751.00 2017.00 L 1832.00 2014.00 L 1889.00 2004.00 L 1923.00 1992.00 L 1955.00 1974.00 L 1978.00 1952.00 L 1988.00 1936.00 L 1991.00 1925.00 L 1994.00 1923.00 L 2002.00 1895.00 L 2005.00 1892.00 L 2003.00 1890.00 L 2007.00 1884.00 L 2008.00 1872.00 L 2012.00 1864.00 L 2019.00 1810.00 L 2019.00 1737.00 L 2011.00 1656.00 L 2008.00 1653.00 L 2007.00 1633.00 L 2003.00 1623.00 L 2005.00 1620.00 L 2002.00 1616.00 L 2000.00 1595.00 L 1997.00 1592.00 L 1996.00 1578.00 L 1990.00 1562.00 L 1991.00 1558.00 L 1985.00 1540.00 L 1982.00 1519.00 L 1979.00 1516.00 L 1976.00 1499.00 L 1968.00 1482.00 L 1970.00 1480.00 L 1966.00 1474.00 L 1965.00 1465.00 L 1962.00 1463.00 L 1964.00 1462.00 L 1961.00 1459.00 L 1959.00 1447.00 L 1956.00 1445.00 L 1936.00 1385.00 L 1932.00 1381.00 L 1930.00 1371.00 L 1909.00 1328.00 L 1910.00 1326.00 L 1900.00 1303.00 L 1897.00 1301.00 L 1866.00 1236.00 L 1824.00 1163.00 L 1789.00 1110.00 L 1755.00 1064.00 L 1721.00 1025.00 L 1748.00 994.00 L 1794.00 932.00 L 1837.00 865.00 L 1882.00 784.00 L 1886.00 772.00 L 1894.00 760.00 L 1903.00 738.00 L 1906.00 736.00 L 1941.00 654.00 L 1977.00 547.00 L 1985.00 509.00 L 1988.00 507.00 L 1991.00 483.00 L 1996.00 471.00 L 2001.00 438.00 L 2005.00 429.00 L 2003.00 426.00 L 2006.00 422.00 L 2008.00 395.00 L 2011.00 391.00 L 2011.00 377.00 L 2013.00 375.00 L 2014.00 351.00 L 2017.00 345.00 L 2020.00 292.00 L 2019.00 233.00 L 2011.00 177.00 L 2008.00 173.00 L 2007.00 161.00 L 1999.00 137.00 L 1982.00 101.00 L 1959.00 75.00 L 1914.00 53.00 L 1874.00 43.00 L 1873.00 41.00 L 1829.00 34.00 L 1769.00 31.00 L 1703.00 34.00 L 1687.00 38.00 L 1650.00 40.00 L 1648.00 43.00 L 1642.00 41.00 L 1639.00 44.00 L 1612.00 46.00 L 1609.00 49.00 L 1592.00 50.00 L 1579.00 55.00 L 1575.00 54.00 L 1552.00 61.00 L 1529.00 64.00 L 1526.00 67.00 L 1515.00 68.00 L 1497.00 75.00 L 1494.00 74.00 L 1485.00 79.00 L 1472.00 81.00 L 1469.00 84.00 L 1444.00 92.00 L 1441.00 91.00 L 1432.00 96.00 L 1421.00 98.00 L 1416.00 102.00 L 1389.00 110.00 L 1259.00 169.00 L 1215.00 195.00 L 1206.00 198.00 L 1203.00 202.00 L 1180.00 214.00 L 1115.00 256.00 L 1060.00 296.00 L 1023.00 328.00 L 925.00 255.00 L 844.00 203.00 L 797.00 177.00 L 718.00 138.00 L 651.00 109.00 L 533.00 69.00 L 461.00 52.00 L 400.00 41.00 L 342.00 34.00 L 268.00 31.00 L 202.00 35.00 L 197.00 38.00 L 171.00 41.00 L 170.00 43.00 L 149.00 47.00 L 109.00 63.00 Z"/>
    </clipPath>
    <mask id="holeMask">
      <rect x="0" y="0" width="2048" height="2048" fill="white"/>
      <circle cx="1021.50" cy="1024.86" r="155.09" fill="black"/>
    </mask>
    <linearGradient id="g0" gradientUnits="userSpaceOnUse" x1="1024.00" y1="1024.00" x2="40.11" y2="616.46">
      <stop offset="0" stop-color="#DB334F"/>
      <stop offset="1" stop-color="#E36747"/>
    </linearGradient>
    <linearGradient id="g1" gradientUnits="userSpaceOnUse" x1="1024.00" y1="1024.00" x2="616.46" y2="40.11">
      <stop offset="0" stop-color="#D86D3D"/>
      <stop offset="1" stop-color="#E9B238"/>
    </linearGradient>
    <linearGradient id="g2" gradientUnits="userSpaceOnUse" x1="1024.00" y1="1024.00" x2="1431.54" y2="40.11">
      <stop offset="0" stop-color="#462DA4"/>
      <stop offset="1" stop-color="#565FBF"/>
    </linearGradient>
    <linearGradient id="g3" gradientUnits="userSpaceOnUse" x1="1024.00" y1="1024.00" x2="2007.89" y2="616.46">
      <stop offset="0" stop-color="#3A68C0"/>
      <stop offset="1" stop-color="#3FA7D5"/>
    </linearGradient>
    <linearGradient id="g4" gradientUnits="userSpaceOnUse" x1="1024.00" y1="1024.00" x2="2007.89" y2="1431.54">
      <stop offset="0" stop-color="#18746D"/>
      <stop offset="1" stop-color="#329B8C"/>
    </linearGradient>
    <linearGradient id="g5" gradientUnits="userSpaceOnUse" x1="1024.00" y1="1024.00" x2="1431.54" y2="2007.89">
      <stop offset="0" stop-color="#2893A8"/>
      <stop offset="1" stop-color="#34C3B9"/>
    </linearGradient>
    <linearGradient id="g6" gradientUnits="userSpaceOnUse" x1="1024.00" y1="1024.00" x2="616.46" y2="2007.89">
      <stop offset="0" stop-color="#257E42"/>
      <stop offset="1" stop-color="#3F9F54"/>
    </linearGradient>
    <linearGradient id="g7" gradientUnits="userSpaceOnUse" x1="1024.00" y1="1024.00" x2="40.11" y2="1431.54">
      <stop offset="0" stop-color="#6A9F40"/>
      <stop offset="1" stop-color="#99CC44"/>
    </linearGradient>
  </defs>
  <g clip-path="url(#outerClip)" mask="url(#holeMask)">
    <polygon points="1024.00,1024.00 -1433.60,1024.00 -713.79,-713.79" fill="url(#g0)"/>
    <polygon points="1024.00,1024.00 -713.79,-713.79 1024.00,-1433.60" fill="url(#g1)"/>
    <polygon points="1024.00,1024.00 1024.00,-1433.60 2761.79,-713.79" fill="url(#g2)"/>
    <polygon points="1024.00,1024.00 2761.79,-713.79 3481.60,1024.00" fill="url(#g3)"/>
    <polygon points="1024.00,1024.00 3481.60,1024.00 2761.79,2761.79" fill="url(#g4)"/>
    <polygon points="1024.00,1024.00 2761.79,2761.79 1024.00,3481.60" fill="url(#g5)"/>
    <polygon points="1024.00,1024.00 1024.00,3481.60 -713.79,2761.79" fill="url(#g6)"/>
    <polygon points="1024.00,1024.00 -713.79,2761.79 -1433.60,1024.00" fill="url(#g7)"/>
  </g>
</svg>