<svg version="1.2" xmlns="http://www.w3.org/2000/svg" viewBox="0 0 1024 1024" width="1024" height="1024">
	<style>
		.s0 { fill: #000000 } 
	</style>
	<path id="Path 0" fill-rule="evenodd" class="s0" d="m142 16.54c11.82 0.22 26.45 0.88 32.5 1.45 6.05 0.57 15.95 1.72 22 2.56 6.05 0.85 17.53 2.88 25.5 4.53 7.97 1.64 19.45 4.15 25.5 5.56 6.05 1.42 17.98 4.59 26.5 7.05 8.52 2.46 20.9 6.29 27.5 8.52 6.6 2.22 17.4 6.19 24 8.82 6.6 2.63 19.65 8.14 29 12.25 9.35 4.12 23.75 10.96 32 15.21 8.25 4.25 17.93 9.35 21.5 11.33 3.57 1.98 12.13 7.03 19 11.22 6.88 4.19 14.98 9.14 18 10.99 3.02 1.86 9.77 6.27 15 9.81 5.23 3.54 13.77 9.61 19 13.49 5.23 3.88 13.22 10.01 17.78 13.61 4.55 3.61 8.45 7.01 8.67 7.56 0.22 0.55-0.29 2.35-1.14 4-0.84 1.65-3.15 6.15-8.72 17l-0.61 31.5c-0.34 17.32-0.78 65.02-0.97 106-0.2 40.98-0.34 81.02-0.26 103.5l-8.13 2.6c-4.46 1.44-11.49 4.3-15.62 6.36-4.13 2.07-9.41 5.06-16 9.54l-10.75-10.21c-5.91-5.62-55.98-55.32-111.25-110.45-55.27-55.13-141.56-141.44-191.75-191.79-50.19-50.35-91.14-92.05-91-92.66 0.14-0.61 3.17-2.61 6.75-4.46 3.58-1.84 10.78-4.73 16-6.42 5.22-1.69 14.22-3.96 20-5.05 5.78-1.09 14.55-2.4 19.5-2.91 4.95-0.51 18.68-0.74 30.5-0.51zm-49.76 25.21l-7.27 1.75 370.53 370.56c12.01-5.47 15.95-7.06 16.5-7.06 0.66 0 1.03-30.47 1.08-89.25 0.05-49.09 0.44-100.72 0.86-114.75 0.69-22.4 1.04-26.2 2.92-31.25l2.14-5.75c-8.14-5.89-14.32-10.35-19-13.71-4.68-3.36-16.6-11.32-26.5-17.69-9.9-6.37-21.37-13.48-25.5-15.8-4.12-2.33-11.1-6.17-15.5-8.54-4.4-2.36-13.62-7.15-20.5-10.63-6.87-3.48-19.02-9.27-27-12.85-7.98-3.58-18.55-8.21-23.5-10.29-4.95-2.07-18.9-7.06-31-11.08-12.1-4.03-30.1-9.39-40-11.93-9.9-2.54-23.85-5.73-31-7.1-7.15-1.38-15.7-2.95-19-3.5-3.3-0.55-9.37-1.44-13.5-1.97-4.12-0.53-15.6-1.62-25.5-2.42-9.9-0.8-23.18-1.41-29.5-1.36-6.32 0.05-16.22 0.72-22 1.48-5.77 0.76-13.77 2.17-17.76 3.14zm789.26-25.62c8.8-0.08 22.98 0.53 31.5 1.34 9.52 0.9 20.32 2.69 28 4.62 6.88 1.72 16.33 4.79 21 6.8 4.68 2.02 11.13 5.46 20.19 11.61l-203.11 203c-154.97 154.89-203.43 202.76-204.45 202-0.74-0.55-4.22-3.19-7.73-5.87-3.52-2.67-10.45-6.8-15.4-9.17-4.95-2.37-11.7-5.02-15-5.9-3.3-0.87-12.18-2.14-33.47-4.06l-0.31-37.5c-0.17-20.63-0.28-73.5-0.24-117.5 0.07-79.83 0.07-80.01 2.25-85.5 1.2-3.03 3.53-7.53 5.18-10 1.64-2.47 6.27-7.81 10.29-11.85 4.01-4.05 12.25-11.09 18.3-15.64 6.05-4.56 19.1-13.68 29-20.27 9.9-6.59 24.75-15.94 33-20.78 8.25-4.84 21.08-11.96 28.5-15.83 7.43-3.87 20.25-10.12 28.5-13.9 8.25-3.78 19.95-8.92 26-11.42 6.05-2.5 14.15-5.66 18-7.02 3.85-1.37 12.63-4.42 19.5-6.79 6.88-2.37 18.8-6.13 26.5-8.36 7.7-2.22 20.53-5.63 28.5-7.56 7.98-1.94 19-4.4 24.5-5.48 5.5-1.09 14.28-2.63 19.5-3.43 5.23-0.81 13.78-1.98 19-2.6 5.23-0.63 13.33-1.51 18-1.97 4.68-0.46 15.7-0.89 24.5-0.97zm-840.18 24.37l201.84 202.25c111.01 111.24 202.06 203.15 202.34 204.25 0.34 1.37-0.9 3.64-3.99 7.25-2.46 2.89-6.39 8.62-8.72 12.75-2.34 4.12-5.48 11.1-6.99 15.5-1.51 4.4-3.17 11.37-3.71 15.5-0.53 4.12-1.25 10.87-2.21 22.5l-44.19 0.75c-24.3 0.41-75.92 0.75-114.69 0.75-60.98 0.01-71.31-0.2-76.5-1.57-3.3-0.86-8.48-2.76-11.5-4.21-3.75-1.8-8.88-6-16.11-13.18-5.83-5.8-14.41-15.72-19.07-22.04-4.65-6.32-11.62-16.23-15.49-22-3.86-5.77-9.93-15.23-13.49-21-3.56-5.77-9.65-16.13-13.53-23-3.88-6.88-10.66-19.7-15.05-28.5-4.4-8.8-11.16-23.2-15.02-32-3.86-8.8-9.28-21.85-12.05-29-2.77-7.15-6.88-18.63-9.14-25.5-2.26-6.88-6.17-19.7-8.69-28.5-2.51-8.8-6.07-22.53-7.89-30.5-1.82-7.97-4.23-19.45-5.35-25.5-1.12-6.05-3.06-17.53-4.32-25.5-2.07-13.12-2.29-17.88-2.29-50 0.01-34.74 0.06-35.77 2.69-48 1.48-6.88 3.89-15.88 5.37-20 1.47-4.13 3.93-9.98 5.45-13 1.52-3.03 4.91-8.43 7.53-12zm945.79 7.5c0.77-0.01 2.05 1.01 2.85 2.25 0.8 1.24 2.99 5.4 4.87 9.25 1.88 3.85 4.66 10.82 6.19 15.5 1.52 4.67 3.77 14.12 4.99 21 1.63 9.18 2.36 18.09 2.74 33.5 0.29 12.08 0.01 27.37-0.66 36-0.65 8.25-2.31 22.43-3.7 31.5-1.39 9.07-4.12 24.15-6.06 33.5-1.95 9.35-5.94 25.77-8.88 36.5-2.94 10.73-7.36 25.35-9.81 32.5-2.45 7.15-6.25 17.73-8.45 23.5-2.2 5.77-6.7 16.8-10.01 24.5-3.3 7.7-9.25 20.75-13.21 29-3.97 8.25-10.38 20.85-14.26 28-3.88 7.15-10.9 19.3-15.6 27-4.69 7.7-12.11 19.4-16.48 26-4.37 6.6-10.64 15.6-13.93 20-3.29 4.4-9.86 12.85-14.59 18.78-4.74 5.93-8.95 10.76-9.36 10.75-0.41-0.02-3.11-1.61-6-3.55-2.89-1.93-7.72-4.44-10.75-5.58-3.02-1.13-7.97-2.53-11-3.1-3.69-0.7-43.13-0.92-233.95-0.3l-3.77-11c-2.36-6.9-5.77-14.17-9.14-19.5-2.96-4.68-5.89-9.31-6.51-10.29-0.99-1.57 23.9-26.8 200.98-203.75 111.17-111.08 202.74-201.96 203.5-201.96zm-377.98 406.5l9.37 19.76c211.53-1.39 219.48-1.32 226 0.3 3.85 0.95 8.24 2.34 9.75 3.09 1.51 0.74 3.31 1.37 4 1.4 0.69 0.02 5.8-6.17 11.36-13.75 5.55-7.59 13.24-18.53 17.08-24.3 3.83-5.78 10.6-16.58 15.02-24 4.43-7.43 11.71-20.36 16.17-28.75 4.47-8.39 9.21-17.84 10.53-21 1.33-3.16 5.32-12.05 8.88-19.75 3.56-7.7 8.94-20.3 11.96-28 3.02-7.7 6.62-17.15 8-21 1.38-3.85 3.96-11.73 5.73-17.5 1.77-5.78 3.82-12.08 4.55-14 0.72-1.93 2.02-6.43 2.88-10 0.86-3.58 2.66-11.23 4.01-17 1.35-5.78 3.82-17.25 5.48-25.5 1.66-8.25 3.68-19.95 4.49-26 0.81-6.05 2.03-16.63 2.7-23.5 0.83-8.4 1.01-19.39 0.55-33.5-0.37-11.55-1.09-23.7-1.59-27-0.51-3.3-1.65-9.49-2.54-13.75-0.89-4.26-1.93-7.75-2.31-7.75-0.39 0-84.26 83.59-186.39 185.75zm229.38 48l6 2.44c3.3 1.34 7.8 3.64 10 5.12 2.2 1.49 6.25 4.89 9 7.57 2.75 2.68 8.19 8.7 12.09 13.37 3.9 4.67 10.94 13.9 15.65 20.5 4.71 6.6 13.24 19.42 18.96 28.5 5.73 9.08 12.68 20.55 15.46 25.5 2.79 4.95 8.93 16.42 13.65 25.5 4.73 9.08 11.34 22.58 14.7 30 3.36 7.42 8.51 19.35 11.45 26.5 2.93 7.15 7.89 20.2 11.02 29 3.13 8.8 8.14 24.55 11.13 35 2.99 10.45 7.44 28 9.89 39 2.44 11 5.32 25.4 6.39 32 1.07 6.6 2.7 19.65 3.62 29 1.27 12.83 1.56 22.88 1.19 41-0.38 18.64-0.97 26.57-2.63 35.5-1.18 6.33-3.73 16.22-5.67 22-1.95 5.77-5.07 13.42-6.94 17-1.87 3.58-4.93 8.3-10.22 14.5l-4.47-4c-2.46-2.2-86.12-85.67-185.9-185.5-99.79-99.83-188.96-189.26-214.87-216l6.37-9.25c3.51-5.09 7.56-11.61 9-14.5 1.44-2.89 3.95-9.19 5.56-14 2.45-7.32 3.02-10.91 4-35.14l2.78-0.42c1.53-0.23 54.54-0.36 232.79-0.19zm-678.06 15.53c0.58 0.02 3.31 1.33 6.06 2.93 2.75 1.59 9.05 4.36 23 9.39l232-1.31 2.87 8.73c1.59 4.8 4.12 11.2 5.63 14.23 1.51 3.02 4.62 8.42 6.91 12 2.29 3.58 4.04 7.06 3.88 7.75-0.16 0.69-91.19 92.16-202.29 203.26-111.1 111.1-202.12 202-202.25 202-0.14-0.01-1.38-1.81-2.75-4.01-1.38-2.2-4.3-8.05-6.5-13-2.2-4.95-5.1-13.39-6.45-18.75-1.34-5.36-3.19-15.15-4.1-21.75-1.35-9.7-1.57-17.27-1.17-39.5 0.31-17.06 1.13-32.25 2.15-40 0.92-6.88 3.24-20.83 5.16-31 1.93-10.17 5.1-25.02 7.05-33 1.95-7.98 5.52-21.25 7.93-29.5 2.4-8.25 6.43-20.85 8.95-28 2.51-7.15 6.63-18.17 9.15-24.5 2.51-6.33 7.05-17.13 10.08-24 3.02-6.88 8.88-19.25 13-27.5 4.13-8.25 10.66-20.85 14.52-28 3.85-7.15 11.06-19.52 16-27.5 4.95-7.98 12.38-19.45 16.51-25.5 4.12-6.05 10.01-14.38 13.07-18.5 3.06-4.13 7.59-9.98 10.05-13 2.47-3.02 5.84-6.96 7.49-8.75 1.64-1.79 3.47-3.24 4.05-3.22zm-19.16 58.97c-4.95 7.42-13.17 20.48-18.26 29-5.09 8.52-14.12 24.95-20.08 36.5-5.95 11.55-14.17 28.65-18.27 38-4.1 9.35-10.48 25.33-14.17 35.5-3.7 10.17-8.27 23.45-10.18 29.5-1.9 6.05-5.2 17.75-7.34 26-2.14 8.25-5.45 22.42-7.37 31.5-1.92 9.08-4.41 23.02-5.55 31-1.13 7.98-2.5 19.67-3.05 26-0.55 6.33-0.99 18.92-0.99 28 0.01 9.08 0.66 21.45 1.46 27.5 0.79 6.05 2.25 14.04 3.23 17.76 0.98 3.72 2.01 6.76 2.29 6.75 0.27 0 83.91-83.37 185.87-185.26l185.37-185.25c-5.4-11.63-7.24-15.9-7.59-17-0.63-1.98-1.51-2-112.89-2h-112.26c-11.63-4.25-15.54-5.49-16.19-5.49-0.66-0.01-4.31 4.15-8.11 9.24-3.81 5.09-10.97 15.33-15.92 22.75zm305.97 1c0.41 0 4.46 2.64 9 5.87 4.53 3.23 11.06 7.28 14.5 9 3.43 1.72 10.18 4.27 15 5.67 4.82 1.4 14.4 3.08 33.96 4.96l0.66 22.5c0.36 12.37 0.65 64.35 0.65 115.5 0 80.86-0.2 93.78-1.56 99-0.85 3.3-2.99 8.43-4.76 11.4-1.76 2.97-6.58 8.77-10.7 12.89-4.13 4.12-13.58 12.04-21 17.59-7.43 5.56-21.38 15.31-31 21.67-9.63 6.37-21.78 14.08-27 17.15-5.23 3.07-13.78 7.91-19 10.76-5.23 2.85-17.83 9.27-28 14.27-10.18 4.99-23.23 11.07-29 13.51-5.78 2.44-19.05 7.69-29.5 11.68-10.45 3.99-26.65 9.56-36 12.37-9.35 2.81-24.43 6.95-33.5 9.19-9.08 2.24-23.7 5.38-32.5 6.98-8.8 1.59-23.65 3.93-33 5.2-14.69 1.99-21.02 2.3-46.5 2.24-25.84-0.07-30.99-0.35-41.5-2.27-6.6-1.2-16.73-3.8-22.5-5.77-5.78-1.97-12.75-4.73-15.5-6.12-2.75-1.4-7.48-4.14-10.5-6.1-3.03-1.96-5.73-3.72-6-3.9-0.28-0.18 90.62-91.43 202-202.78 111.37-111.35 202.83-202.45 203.25-202.46zm123 5.08c1.05-0.05 82.14 80.21 203.77 201.67 111.12 110.96 202.03 202.2 202.04 202.75 0 0.55-4.4 3.09-9.78 5.64-5.38 2.55-13.61 5.79-18.28 7.2-4.68 1.41-12.33 3.26-17 4.11-4.68 0.84-13.68 1.99-20 2.53-6.33 0.55-18.7 1-27.5 1-8.8 0-23.2-0.64-32-1.42-8.8-0.79-20.28-2.11-25.5-2.95-5.23-0.84-19.4-3.58-31.5-6.09-12.1-2.51-28.75-6.39-37-8.62-8.25-2.23-22.43-6.54-31.5-9.58-9.08-3.04-25.05-8.88-35.5-12.99-10.45-4.11-31.15-13.46-46-20.79-14.85-7.32-32.4-16.46-39-20.3-6.6-3.85-17.66-10.54-24.56-14.87-6.91-4.33-17.19-11.02-22.85-14.87-5.66-3.85-15.54-11.05-21.96-16-6.42-4.95-13.35-10.35-15.4-12-2.06-1.65-3.73-3.56-3.73-4.25 0-0.69 1.57-3.61 3.5-6.5 1.93-2.89 4.17-7.27 4.99-9.75 0.81-2.48 1.92-7.65 2.47-11.5 0.61-4.33 1-50.37 1-234l8.27-2.46c4.55-1.35 11.64-4.14 15.77-6.2 4.12-2.06 9.3-5.08 11.5-6.71 2.2-1.63 4.78-3 5.75-3.05zm-5.75 28.36c-2.2 1.16-6.48 3.17-9.5 4.47l-5.5 2.36 1.54 219.23-6.54 21.44c15.5 11.2 24.72 17.67 30.5 21.6 5.77 3.93 17.02 11.2 25 16.15 7.97 4.95 21.02 12.53 29 16.84 7.97 4.31 22.37 11.64 32 16.28 9.62 4.64 25.37 11.59 35 15.43 9.62 3.84 22.45 8.69 28.5 10.77 6.05 2.09 16.17 5.4 22.5 7.37 6.32 1.96 19.37 5.56 29 8.01 9.62 2.44 26.05 6.05 36.5 8.01 10.45 1.97 25.52 4.28 33.5 5.14 7.97 0.86 22.15 1.83 31.5 2.15 12.6 0.43 20.87 0.15 32-1.09 8.25-0.92 18.37-2.48 22.5-3.46l7.5-1.78-371-371.02zm-54.75-175.37c2.88-0.04 8.73 0.42 13 1.03 4.26 0.6 10.9 2.24 14.75 3.64 3.85 1.4 10.08 4.4 13.84 6.65 3.77 2.26 10.24 7.48 14.38 11.61 4.15 4.12 9.27 10.42 11.38 14 2.11 3.57 4.97 9.76 6.37 13.75 1.39 3.98 3.02 10.73 3.64 15 0.61 4.26 0.86 11.57 0.56 16.25-0.3 4.67-1.53 11.65-2.73 15.5-1.2 3.85-3.75 10.15-5.68 14-2.65 5.27-6.01 9.49-13.64 17.12-8.86 8.86-11.31 10.69-19.62 14.69-5.23 2.51-12.43 5.33-16 6.27-4.21 1.1-10.4 1.71-17.5 1.72-6.05 0.01-13.7-0.57-17-1.27-3.3-0.71-9.38-2.72-13.5-4.46-4.13-1.74-10.2-5-13.5-7.23-3.3-2.24-8.72-6.94-12.03-10.46-3.31-3.51-7.9-9.53-10.19-13.38-2.29-3.85-5.38-10.6-6.85-15-2.02-6.02-2.81-10.73-3.2-19-0.37-8.14-0.06-13.22 1.22-19.5 0.94-4.68 2.82-11.2 4.16-14.5 1.34-3.3 4.08-8.48 6.09-11.5 2.01-3.03 5.93-7.92 8.72-10.87 2.79-2.96 7.78-7.31 11.08-9.69 3.3-2.37 9.15-5.75 13-7.5 3.85-1.76 10.82-4.01 15.5-5 4.67-0.99 10.86-1.83 13.75-1.87z"/>
</svg>